<svg width="1080" height="260" viewBox="0 0 1080 260" fill="none" xmlns="http://www.w3.org/2000/svg">
<g filter="url(#filter0_d)">
<path d="M106.912 40H146.641L212.539 216.224H172.27L158.982 177.037H93.0836L79.2548 216.292H40L106.912 40ZM103.193 148.196H148.872L126.658 83.5151H126.151L103.193 148.196Z" fill="#13285B"/>
<path d="M225.387 40H264.135V183.799H350.016V216.393H225.387V40Z" fill="#13285B"/>
<path d="M405.567 72.5603H352.72V40H497.128V72.5603H444.315V216.224H405.567V72.5603Z" fill="#13285B"/>
<path d="M519.813 40H651.677V72.5603H558.561V110.327H643.968V140.453H558.561V183.799H653.604V216.393H519.813V40Z" fill="#13285B"/>
<path d="M677.309 40H772.318C803.932 40 823.914 61.9435 823.914 88.6206C823.914 109.347 815.529 124.9 796.02 132.778V133.285C815.022 138.222 820.466 156.716 821.683 174.501C822.427 185.591 822.19 206.351 829.088 216.224H790.34C785.64 205.1 786.147 188.06 784.186 173.994C781.447 155.499 774.313 147.351 754.804 147.351H716.056V216.224H677.309V40ZM716.056 119.558H758.49C775.767 119.558 785.167 112.153 785.167 94.4023C785.167 77.4967 775.767 69.9568 758.49 69.9568H716.056V119.558Z" fill="#13285B"/>
<path d="M1030.5 72.2217H959.158L952.395 111.443L952.869 111.95C957.229 107.447 962.501 103.929 968.333 101.631C974.165 99.3336 980.42 98.3097 986.68 98.6283C1020.76 98.6283 1040 125.035 1040 157.358C1039.98 165.695 1038.29 173.944 1035.03 181.616C1031.77 189.289 1027 196.23 1021.02 202.03C1015.03 207.829 1007.94 212.37 1000.16 215.383C992.39 218.395 984.092 219.82 975.759 219.571C942.218 219.571 912.092 201.043 911.518 164.763H946.546C947.048 171.899 950.271 178.569 955.551 183.395C960.83 188.222 967.762 190.835 974.914 190.696C993.206 190.696 1004.8 174.636 1004.8 157.358C1004.8 139.337 993.679 125.035 974.914 125.035C962.336 125.035 955.438 129.464 948.507 138.864H916.927L933.833 43.3469H1030.33L1030.5 72.2217Z" fill="#13285B"/>
</g>
<defs>
<filter id="filter0_d" x="0" y="0" width="1080" height="259.599" filterUnits="userSpaceOnUse" color-interpolation-filters="sRGB">
<feFlood flood-opacity="0" result="BackgroundImageFix"/>
<feColorMatrix in="SourceAlpha" type="matrix" values="0 0 0 0 0 0 0 0 0 0 0 0 0 0 0 0 0 0 127 0" result="hardAlpha"/>
<feOffset/>
<feGaussianBlur stdDeviation="20"/>
<feComposite in2="hardAlpha" operator="out"/>
<feColorMatrix type="matrix" values="0 0 0 0 0 0 0 0 0 0 0 0 0 0 0 0 0 0 0.1 0"/>
<feBlend mode="normal" in2="BackgroundImageFix" result="effect1_dropShadow"/>
<feBlend mode="normal" in="SourceGraphic" in2="effect1_dropShadow" result="shape"/>
</filter>
</defs>
</svg>
