<svg width="164" height="34" viewBox="0 0 164 34" fill="none" xmlns="http://www.w3.org/2000/svg">
<path d="M24.2895 9.90789V0H0.995117V23.2906H10.9067V33.2173H34.1974V9.92661L24.2895 9.90789ZM4.56735 19.7371V3.56474H20.7248V17.3032L16.8979 13.4764L13.3294 9.90789L10.9105 7.48895V19.7371H4.56735ZM30.6327 29.6488H14.4752V15.6744L18.523 19.7371L22.0915 23.3056L24.2933 25.5074V23.0884V13.4764H30.6364L30.6327 29.6488Z" fill="#51B6BE"/>
<path d="M56.9747 3.4375H60.9564L67.5609 21.0992H63.525L62.1933 17.1718H55.5888L54.2028 21.106H50.2686L56.9747 3.4375ZM56.602 14.2812H61.1801L58.9537 7.79872H58.9029L56.602 14.2812Z" fill="#13285B"/>
<path d="M68.8486 3.4375H72.7321V17.8495H81.3393V21.1162H68.8486V3.4375Z" fill="#13285B"/>
<path d="M86.9068 6.70079H81.6104V3.4375H96.0834V6.70079H90.7903V21.0993H86.9068V6.70079Z" fill="#13285B"/>
<path d="M98.3574 3.4375H111.573V6.70079H102.241V10.4859H110.801V13.5052H102.241V17.8495H111.766V21.1162H98.3574V3.4375Z" fill="#13285B"/>
<path d="M114.142 3.4375H123.664C126.832 3.4375 128.835 5.63675 128.835 8.31041C128.835 10.3877 127.994 11.9465 126.039 12.736V12.7868C127.944 13.2816 128.489 15.1352 128.611 16.9176C128.686 18.0291 128.662 20.1098 129.353 21.0993H125.47C124.999 19.9844 125.05 18.2765 124.853 16.8668C124.579 15.0132 123.864 14.1965 121.908 14.1965H118.025V21.0993H114.142V3.4375ZM118.025 11.411H122.278C124.009 11.411 124.951 10.6689 124.951 8.88987C124.951 7.19553 124.009 6.43986 122.278 6.43986H118.025V11.411Z" fill="#13285B"/>
<path d="M149.54 6.66687H142.39L141.712 10.5977L141.76 10.6486C142.197 10.1973 142.725 9.84466 143.309 9.61438C143.894 9.38411 144.521 9.28149 145.148 9.31342C148.564 9.31342 150.492 11.96 150.492 15.1995C150.49 16.0351 150.321 16.8617 149.994 17.6307C149.667 18.3997 149.19 19.0954 148.59 19.6766C147.989 20.2579 147.279 20.7129 146.5 21.0149C145.721 21.3169 144.889 21.4596 144.054 21.4347C140.692 21.4347 137.673 19.5777 137.615 15.9417H141.126C141.176 16.6568 141.499 17.3253 142.028 17.809C142.557 18.2927 143.252 18.5547 143.969 18.5408C145.802 18.5408 146.965 16.9311 146.965 15.1995C146.965 13.3934 145.85 11.96 143.969 11.96C142.708 11.96 142.017 12.4039 141.322 13.3459H138.157L139.852 3.77295H149.523L149.54 6.66687Z" fill="#13285B"/>
</svg>
