<?xml version="1.0" encoding="utf-8"?>
<!-- Generator: Adobe Illustrator 24.1.2, SVG Export Plug-In . SVG Version: 6.00 Build 0)  -->
<svg version="1.1" id="Capa_1" xmlns="http://www.w3.org/2000/svg" xmlns:xlink="http://www.w3.org/1999/xlink" x="0px" y="0px"
	 width="121px" height="80px" viewBox="0 0 121 80" style="enable-background:new 0 0 121 80;" xml:space="preserve">
<style type="text/css">
	.st0{fill:#1B519B;}
	.st1{fill:#B6B6B6;}
	.st2{fill:#FAD147;}
</style>
<g>
	<rect x="15.9" y="14.8" class="st0" width="16.9" height="5.4"/>
	<rect x="38.3" y="14.8" class="st1" width="5.7" height="28.2"/>
	<rect x="15.9" y="26" class="st0" width="16.9" height="5.4"/>
	<rect x="15.9" y="37.1" class="st0" width="16.9" height="5.4"/>
	<rect x="49.6" y="14.8" class="st2" width="16.9" height="5.4"/>
	<rect x="49.6" y="26" class="st2" width="16.9" height="5.4"/>
	<rect x="49.6" y="37.1" class="st2" width="5.6" height="5.4"/>
	<g>
		<path class="st0" d="M63.6,37.8h-2.3v1.6h2.2V40h-2.2v2.1h2.3v0.5h-2.9v-5.5h2.9V37.8z"/>
		<path class="st0" d="M65.3,40.5c0,0.5,0,1,0.4,1.3c0.2,0.2,0.6,0.3,0.9,0.3s0.7-0.1,0.9-0.3c0.4-0.4,0.4-0.9,0.4-1.3v-3.4h0.6v3.5
			c0,0.5-0.1,0.9-0.4,1.3c-0.3,0.4-0.9,0.7-1.6,0.7c-0.7,0-1.3-0.3-1.6-0.7c-0.3-0.4-0.4-0.9-0.4-1.3v-3.5h0.6V40.5z"/>
		<path class="st0" d="M70.9,37.2c0.4,0,0.9,0,1.3,0.3c0.3,0.2,0.6,0.6,0.6,1.2c0,0.9-0.5,1.5-1.4,1.5l1.8,2.4h-0.7l-1.6-2.4h-0.2
			v2.4H70v-5.5H70.9z M70.6,39.8h0.4c0.7,0,1.2-0.4,1.2-1c0-0.3-0.1-0.6-0.4-0.8c-0.2-0.1-0.5-0.2-0.8-0.2h-0.4V39.8z"/>
		<path class="st0" d="M73.8,39.9c0-1.6,1.3-2.9,2.9-2.9c1.6,0,2.9,1.2,2.9,2.9s-1.3,2.9-2.9,2.9C75.1,42.8,73.8,41.6,73.8,39.9z
			 M74.4,39.9c0,1.3,1,2.3,2.3,2.3c1.2,0,2.3-1,2.3-2.3c0-1.3-1-2.3-2.3-2.3C75.5,37.7,74.4,38.7,74.4,39.9z"/>
		<path class="st0" d="M81.6,37.2c0.5,0,1,0.1,1.4,0.4c0.4,0.4,0.5,0.9,0.5,1.2c0,0.8-0.5,1.5-1.7,1.5h-0.5v2.4h-0.6v-5.5L81.6,37.2
			L81.6,37.2z M81.3,39.8h0.5c0.7,0,1.2-0.4,1.2-1c0-0.9-0.8-1-1.2-1h-0.4V39.8z"/>
		<path class="st0" d="M87.2,37.8H85v1.6h2.2V40H85v2.1h2.3v0.5h-2.9v-5.5h2.9V37.8z"/>
		<path class="st0" d="M91.4,41.2h-2.3l-0.7,1.5h-0.7l2.5-5.7l2.4,5.7H92L91.4,41.2z M91.2,40.5l-0.9-2.2l-0.9,2.2H91.2z"/>
		<path class="st0" d="M93.5,42.7v-5.7l4.3,4.5v-4.3h0.6v5.7l-4.3-4.5v4.2L93.5,42.7L93.5,42.7z"/>
		<path class="st0" d="M61.3,48.3v5.5h-0.6v-5.5H61.3z"/>
		<path class="st0" d="M62.7,53.8v-5.7l4.3,4.5v-4.3h0.6V54l-4.3-4.5v4.2L62.7,53.8L62.7,53.8z"/>
		<path class="st0" d="M69,48.3l1.5,4.2l1.5-4.2h0.7l-2.2,5.8l-2.2-5.8C68.4,48.3,69,48.3,69,48.3z"/>
		<path class="st0" d="M76.4,48.9h-2.3v1.6h2.2v0.5h-2.2v2.1h2.3v0.5h-2.9v-5.5h2.9V48.9z"/>
		<path class="st0" d="M80,49.4c-0.1-0.1-0.2-0.3-0.3-0.4c-0.1-0.1-0.3-0.2-0.6-0.2c-0.5,0-0.9,0.4-0.9,0.9c0,0.2,0.1,0.4,0.2,0.5
			c0.2,0.2,0.4,0.2,0.5,0.4l0.5,0.2c0.3,0.1,0.6,0.3,0.9,0.5c0.3,0.3,0.4,0.6,0.4,1c0,1-0.7,1.7-1.7,1.7c-0.4,0-0.8-0.1-1.2-0.4
			c-0.2-0.2-0.4-0.7-0.5-1l0.6-0.2c0.1,0.3,0.2,0.5,0.3,0.7c0.2,0.2,0.5,0.3,0.8,0.3c0.7,0,1.1-0.5,1.1-1.1c0-0.2-0.1-0.5-0.2-0.7
			c-0.2-0.1-0.4-0.2-0.7-0.4l-0.5-0.2c-0.2-0.1-0.5-0.2-0.7-0.4c-0.2-0.2-0.4-0.5-0.4-0.9c0-0.9,0.7-1.4,1.5-1.4
			c0.4,0,0.6,0.1,0.9,0.2c0.2,0.1,0.4,0.4,0.5,0.6L80,49.4z"/>
		<path class="st0" d="M82.8,48.9v4.9h-0.6v-4.9h-1.3v-0.5h3.3v0.5C84.2,48.9,82.8,48.9,82.8,48.9z"/>
		<path class="st0" d="M84.8,53.8l0.9-5.8l2.1,4.6L90,48l0.9,5.8h-0.6L89.7,50l-1.9,4L86,50l-0.5,3.8H84.8z"/>
		<path class="st0" d="M94.9,48.9h-2.3v1.6h2.2v0.5h-2.2v2.1h2.3v0.5h-2.9v-5.5h2.9L94.9,48.9L94.9,48.9z"/>
		<path class="st0" d="M96.1,53.8v-5.7l4.3,4.5v-4.3h0.6V54l-4.3-4.5v4.2L96.1,53.8L96.1,53.8z"/>
		<path class="st0" d="M103.7,48.9v4.9h-0.6v-4.9h-1.3v-0.5h3.3v0.5C105.1,48.9,103.7,48.9,103.7,48.9z"/>
		<path class="st0" d="M63.2,60h-1.9v1.6h1.8v0.5h-1.8v2.7h-0.6v-5.5h2.5V60z"/>
		<path class="st0" d="M64.9,62.8c0,0.5,0,1,0.4,1.3c0.2,0.2,0.6,0.3,0.9,0.3c0.3,0,0.7-0.1,0.9-0.3c0.4-0.4,0.4-0.9,0.4-1.3v-3.4
			h0.6V63c0,0.5-0.1,0.9-0.4,1.3S66.9,65,66.2,65c-0.7,0-1.3-0.3-1.6-0.7s-0.4-0.9-0.4-1.3v-3.5h0.6V62.8z"/>
		<path class="st0" d="M69.6,64.9v-5.7l4.3,4.5v-4.3h0.6v5.7l-4.3-4.5v4.3H69.6z"/>
		<path class="st0" d="M75.9,59.4H77c0.5,0,1.3,0.1,2,0.7c0.5,0.4,0.9,1.1,0.9,2.1c0,1.2-0.5,1.8-1,2.1c-0.5,0.4-1,0.6-2,0.6h-1.1
			L75.9,59.4L75.9,59.4z M76.5,64.3H77c0.4,0,1-0.1,1.6-0.5c0.4-0.4,0.7-0.9,0.7-1.6c0-1.3-0.9-2.2-2.3-2.2h-0.5
			C76.5,60,76.5,64.3,76.5,64.3z"/>
	</g>
</g>
</svg>
