<?xml version="1.0" encoding="utf-8"?>
<!-- Generator: Adobe Illustrator 24.1.2, SVG Export Plug-In . SVG Version: 6.00 Build 0)  -->
<svg version="1.1" id="Capa_1" xmlns="http://www.w3.org/2000/svg" xmlns:xlink="http://www.w3.org/1999/xlink" x="0px" y="0px"
	 width="121px" height="80.7px" viewBox="0 0 121 80.7" style="enable-background:new 0 0 121 80.7;" xml:space="preserve">
<style type="text/css">
	.st0{fill:#003399;}
	.st1{fill:#FFCC00;}
</style>
<desc>European flag</desc>
<rect x="-3.6" y="-2.7" class="st0" width="129" height="84.8"/>
<path class="st1" d="M60.5,9l-1,3.1h-3.3l2.6,1.9l-1,3.1l2.6-1.9l2.6,1.9l-1-3.1l2.6-1.9h-3.3L60.5,9z M61.5,65.8l-1-3.1l-1,3.1
	h-3.3l2.6,1.9l-1,3.1l2.6-1.9l2.6,1.9l-1-3.1l2.6-1.9H61.5z M33.6,42.1l2.6,1.9l-1-3.1l2.6-1.9h-3.3l-1-3.1l-1,3.1h-3.3l2.6,1.9
	l-1,3.1L33.6,42.1z M47.1,12.6l-1,3.1h-3.3l2.6,1.9l-1,3.1l2.6-1.9l2.6,1.9l-1-3.1l2.6-1.9h-3.3L47.1,12.6z M37.2,22.4l-1,3.1H33
	l2.6,1.9l-1,3.1l2.6-1.9l2.6,1.9l-1-3.1l2.6-1.9h-3.3L37.2,22.4z M38.2,52.4l-1-3.1l-1,3.1H33l2.6,1.9l-1,3.1l2.6-1.9l2.6,1.9
	l-1-3.1l2.6-1.9H38.2z M48.1,62.2l-1-3.1l-1,3.1h-3.3l2.6,1.9l-1,3.1l2.6-1.9l2.6,1.9l-1-3.1l2.6-1.9H48.1z M81.2,30.5l2.6-1.9
	l2.6,1.9l-1-3.1l2.6-1.9h-3.3l-1-3.1l-1,3.1h-3.3l2.6,1.9L81.2,30.5z M91.6,38.9h-3.3l-1-3.1l-1,3.1h-3.3l2.6,1.9l-1,3.1l2.6-1.9
	l2.6,1.9l-1-3.1L91.6,38.9z M74.9,62.2l-1-3.1l-1,3.1h-3.3l2.6,1.9l-1,3.1l2.6-1.9l2.6,1.9l-1-3.1l2.6-1.9H74.9z M84.8,52.4l-1-3.1
	l-1,3.1h-3.3l2.6,1.9l-1,3.1l2.6-1.9l2.6,1.9l-1-3.1l2.6-1.9H84.8z M73.9,12.6l-1,3.1h-3.3l2.6,1.9l-1,3.1l2.6-1.9l2.6,1.9l-1-3.1
	l2.6-1.9h-3.3L73.9,12.6z"/>
</svg>
